<?xml version="1.0" standalone="no"?>
<!DOCTYPE svg PUBLIC "-//W3C//DTD SVG 20010904//EN"
 "http://www.w3.org/TR/2001/REC-SVG-20010904/DTD/svg10.dtd">
<svg version="1.0" xmlns="http://www.w3.org/2000/svg"
 width="773.000000pt" height="5496.000000pt" viewBox="0 0 773.000000 5496.000000"
 preserveAspectRatio="xMidYMid meet">

<g transform="translate(0.000000,5496.000000) scale(0.100000,-0.100000)"
fill="#000000" stroke="none">
<path d="M4500 50875 l-3225 -3225 523 -523 522 -522 0 -1643 0 -1642 75 0 75
0 0 1560 c0 858 4 1560 8 1560 5 0 37 -29 70 -64 l62 -64 0 -2226 0 -2226 80
0 80 0 0 2140 c0 1232 4 2140 9 2140 5 0 25 -18 45 -40 l36 -40 0 -2850 0
-2850 55 0 55 0 0 2790 c0 1535 3 2790 8 2790 4 0 850 -843 1880 -1873 l1872
-1872 0 -21098 0 -21097 40 0 40 0 2 21049 3 21049 148 -142 147 -141 0
-15458 0 -15457 40 0 40 0 0 15418 0 15417 85 -86 85 -86 0 -2412 0 -2411 40
0 40 0 0 2373 0 2372 85 -86 85 -86 0 -11102 0 -11101 40 0 40 0 0 11062 c0
11060 0 11061 20 11043 20 -18 20 -17 20 2366 l0 2384 -812 812 -813 813 813
813 812 812 -2 2443 -3 2442 -3225 -3225z"/>
</g>
</svg>
